# xmcd
# Copyright (C) 1995-1998 Ti Kan
#
# Track frame offsets:
#       150
#       14314
#       29311
#       43840
#       62927
#       76588
#       92115
#       107260
#       122137
#       136805
#       152050
#       166504
#
# Disc length: 2406 seconds
#
# Revision: 0
# Processed by: cddbd v1.5.2PL0 Copyright (c) Steve Scherf et al.
# Submitted via: CD-Transfer v1.0
#
DISCID=8709640c
DTITLE=Weekend - 
DYEAR=08
DGENRE=
TTITLE0=Alleine Zum Träumen
TTITLE1=Mein Herz Ist Doch Kein Legostein
TTITLE2=Dich Gönn´ Ich Mir
TTITLE3=Auf Dem Weg
TTITLE4=Kleine Feuer Löscht Der Wind
TTITLE5=Und Dann Ist Es Liebe
TTITLE6=Harry Potter Muss Dein Bruder Sein
TTITLE7=Manchmal Braucht Die Liebe Zeit
TTITLE8=Ein Neuer Tag
TTITLE9=Immer Wieder Du
TTITLE10=Jeder Traum Bleibt Ein Traum
TTITLE11=Ich Bin Vierzig
EXTD=
EXTT0=
EXTT1=
EXTT2=
EXTT3=
EXTT4=
EXTT5=
EXTT6=
EXTT7=
EXTT8=
EXTT9=
EXTT10=
EXTT11=
PLAYORDER=
